<?xml version="1.0" encoding="UTF-8"?>
<svg version="1.1" xmlns="http://www.w3.org/2000/svg" width="768" height="768">
<path d="M0 0 C253.44 0 506.88 0 768 0 C768 253.44 768 506.88 768 768 C514.56 768 261.12 768 0 768 C0 514.56 0 261.12 0 0 Z " fill="#101729" transform="translate(0,0)"/>
<path d="M0 0 C1.09937645 -0.01007584 1.09937645 -0.01007584 2.22096252 -0.02035522 C4.61971 -0.03919516 7.01817554 -0.04325243 9.41699219 -0.04541016 C11.10317087 -0.05184846 12.78934847 -0.05857757 14.4755249 -0.06558228 C18.00242702 -0.07752055 21.52923146 -0.08126673 25.05615234 -0.08007812 C29.54573944 -0.07987528 34.03469109 -0.1071567 38.52412796 -0.14162254 C42.0057251 -0.16400907 45.48717223 -0.16791207 48.96883392 -0.16685867 C50.6224257 -0.16919778 52.27602269 -0.17792445 53.92954254 -0.19352341 C67.71578323 -0.31139571 78.94715741 1.21683426 89.72558594 10.65380859 C97.76315543 19.17085633 100.34635301 27.51549261 100.39086914 38.97314453 C100.39744034 39.71873627 100.40401154 40.464328 100.41078186 41.23251343 C100.43038759 43.68414433 100.44214861 46.13571436 100.45214844 48.58740234 C100.45622396 49.42995827 100.46029949 50.27251419 100.46449852 51.14060211 C100.48530464 55.60007985 100.49963009 60.05952731 100.5090332 64.51904297 C100.52008892 69.10300643 100.55449475 73.68648336 100.5942049 78.27027512 C100.6204581 81.81525521 100.6287327 85.36012078 100.63231468 88.90518951 C100.6371578 90.59393857 100.64870617 92.28268331 100.66735268 93.97133636 C100.80362512 107.12948586 99.24518523 117.17000512 90.21386719 127.29052734 C82.7751571 134.56017584 73.89172799 138.42965471 63.59643555 138.4675293 C62.434814 138.47738609 62.434814 138.47738609 61.24972534 138.48744202 C58.68438618 138.50716478 56.11910568 138.51883851 53.55371094 138.52880859 C52.2361037 138.53492188 52.2361037 138.53492188 50.89187813 138.54115868 C46.23789836 138.5620202 41.58394805 138.57631866 36.92993164 138.58569336 C32.14074664 138.59672695 27.35203022 138.63109109 22.56301022 138.67086506 C18.86618739 138.69711809 15.16947443 138.70539312 11.4725666 138.70897484 C9.70845964 138.71382243 7.94435698 138.72538385 6.18034172 138.74401283 C-11.51966988 138.91923854 -11.51966988 138.91923854 -19.78613281 134.29052734 C-20.676875 133.79552734 -21.56761719 133.30052734 -22.48535156 132.79052734 C-31.01130131 126.35837665 -36.49927796 116.70098775 -38.78613281 106.29052734 C-39.22455786 100.71752968 -39.20926096 95.16304113 -39.18457031 89.57568359 C-39.18659539 87.95340342 -39.18951042 86.33112413 -39.19326782 84.70884705 C-39.19767205 81.32070182 -39.1913227 77.93279507 -39.17724609 74.54467773 C-39.16016897 70.22650403 -39.16999798 65.90889047 -39.18796349 61.59073734 C-39.19886477 58.24389007 -39.19532586 54.89717302 -39.18758011 51.55032158 C-39.18559487 49.95929331 -39.18797767 48.36825278 -39.19501877 46.77723885 C-39.24307433 32.86789634 -37.76846516 21.34325063 -27.57128906 11.05615234 C-19.04135879 3.27844554 -11.61645191 0.06739982 0 0 Z " fill="#06B1CE" transform="translate(140.7861328125,322.70947265625)"/>
<path d="M0 0 C4.62 0 9.24 0 14 0 C14 22.77 14 45.54 14 69 C9.71 69 5.42 69 1 69 C0.67 68.01 0.34 67.02 0 66 C-0.83917969 66.64839844 -1.67835938 67.29679687 -2.54296875 67.96484375 C-8.08984966 71.64487644 -14.6372497 70.75251112 -21 70 C-28.50604981 67.76644011 -32.805241 62.35456051 -37 56 C-38.66617889 52.66764222 -38.22670485 48.97275012 -38.25 45.3125 C-38.270625 44.52166016 -38.29125 43.73082031 -38.3125 42.91601562 C-38.3544099 36.57190401 -37.33081628 31.96895159 -33.31640625 26.85546875 C-32.73761719 26.30503906 -32.15882813 25.75460937 -31.5625 25.1875 C-30.98628906 24.62417969 -30.41007813 24.06085938 -29.81640625 23.48046875 C-24.81176438 19.40141656 -19.33507297 18.96353128 -13.0625 18.6875 C-12.26972656 18.65011719 -11.47695313 18.61273438 -10.66015625 18.57421875 C-8 19 -8 19 -1 23 C-0.67 15.41 -0.34 7.82 0 0 Z " fill="#8193A6" transform="translate(545,357)"/>
<path d="M0 0 C4.62 0 9.24 0 14 0 C14 21.45 14 42.9 14 65 C1 65 1 65 -2.65625 61.6953125 C-3.64883143 60.20059181 -4.59521926 58.67444494 -5.5 57.125 C-6.56639312 55.48221841 -7.63414473 53.84031802 -8.703125 52.19921875 C-9.50459961 50.91990479 -9.50459961 50.91990479 -10.32226562 49.61474609 C-13.117231 45.25879743 -16.19266065 41.111293 -19.25 36.9375 C-20.33904941 35.42614699 -21.42763505 33.91445962 -22.515625 32.40234375 C-24.14115777 30.10123333 -24.14115777 30.10123333 -26 28 C-26.33 40.54 -26.66 53.08 -27 66 C-31.95 66 -36.9 66 -42 66 C-42 44.55 -42 23.1 -42 1 C-28 1 -28 1 -25.05078125 3.31640625 C-24.47714844 4.38761719 -23.90351563 5.45882813 -23.3125 6.5625 C-22.61717347 7.76008083 -21.91777306 8.9553033 -21.21484375 10.1484375 C-20.86276855 10.7784668 -20.51069336 11.40849609 -20.14794922 12.05761719 C-18.14355818 15.4491389 -15.74450824 18.54554582 -13.375 21.6875 C-9.13763629 27.38558703 -5.07523504 33.17823566 -1 39 C-0.67 26.13 -0.34 13.26 0 0 Z " fill="#06AFCD" transform="translate(318,360)"/>
<path d="M0 0 C5.41651214 3.42610707 9.02543455 7.80086909 11.875 13.5 C13.3621269 31.89143011 13.3621269 31.89143011 7.58203125 38.80859375 C7.01871094 39.36675781 6.45539063 39.92492187 5.875 40.5 C5.38386719 41.00660156 4.89273438 41.51320313 4.38671875 42.03515625 C-2.31546793 48.23151752 -8.77672192 49.13148479 -17.6171875 48.90625 C-25.98564305 47.93707475 -31.44168193 43.89164847 -36.75 37.5625 C-41.41399152 30.56651272 -41.11401431 22.12839055 -39.6953125 14.0546875 C-37.59105196 7.43016357 -32.45520848 2.69921884 -26.6875 -0.9375 C-18.55627229 -4.5601676 -7.84794503 -3.92934047 0 0 Z " fill="#08B0CE" transform="translate(380.125,378.5)"/>
<path d="M0 0 C5.7273404 3.51110868 9.04573037 8.78455062 12.4375 14.4375 C12.4375 19.0575 12.4375 23.6775 12.4375 28.4375 C0.8875 28.4375 -10.6625 28.4375 -22.5625 28.4375 C-20.38320464 34.95399306 -20.38320464 34.95399306 -17.875 36.875 C-13.55592267 37.92558638 -9.33211438 38.07274619 -5.125 36.5625 C-3.40356726 35.50675899 -3.40356726 35.50675899 -2.5625 33.4375 C1.63219571 34.03674224 5.44749834 35.01249941 9.4375 36.4375 C8.85820224 40.34775991 7.1313245 42.59806336 4.4375 45.4375 C-3.58379767 50.11659031 -12.94724916 50.99899462 -22.01171875 48.859375 C-28.66117918 45.98534495 -32.7908628 39.90374669 -36 33.625 C-37.45397777 25.38579266 -37.94289851 15.53150772 -33.15234375 8.3125 C-25.04289133 -1.73657088 -12.3458263 -5.49496315 0 0 Z " fill="#8294A6" transform="translate(602.5625,377.5625)"/>
<path d="M0 0 C5.08144076 3.51598866 8.74365516 7.98731032 11.5 13.5 C11.5 18.12 11.5 22.74 11.5 27.5 C-0.05 27.5 -11.6 27.5 -23.5 27.5 C-20.72236589 33.68679226 -20.72236589 33.68679226 -15.5 36.5 C-12.71149553 37.00905761 -10.27363218 37.13703341 -7.5 36.5 C-4.7704415 34.02093031 -4.7704415 34.02093031 -2.5 31.5 C-0.625 31.5 -0.625 31.5 1.5 32.5 C2.74951936 33.02198536 3.99955473 33.5427366 5.25 34.0625 C6.3225 34.536875 7.395 35.01125 8.5 35.5 C8.02018228 39.81835944 5.75012912 41.79155907 2.5 44.5 C-4.58093828 49.14545632 -12.23693527 49.61214803 -20.5 48.5 C-27.57460799 45.96614674 -32.4289559 40.01733142 -36.14453125 33.70703125 C-38.89750984 27.19349977 -38.5824103 18.77670633 -36.375 12.0625 C-33.70370674 6.19069501 -29.35518522 1.27350879 -23.5 -1.5 C-15.92069525 -3.87280036 -6.97635177 -3.91227022 0 0 Z " fill="#08B0CE" transform="translate(434.5,378.5)"/>
<path d="M0 0 C4.95 0 9.9 0 15 0 C15.71614583 2.76692708 16.43229167 5.53385417 17.1484375 8.30078125 C17.91913174 11.1805816 17.91913174 11.1805816 20 14 C20.76020201 16.12801074 21.46286119 18.27696558 22.125 20.4375 C22.47820313 21.57058594 22.83140625 22.70367187 23.1953125 23.87109375 C24 27 24 27 24 31 C26.14932497 30.20244857 26.14932497 30.20244857 26.71435547 28.20922852 C26.92979004 27.44022217 27.14522461 26.67121582 27.3671875 25.87890625 C27.61130371 25.02973633 27.85541992 24.18056641 28.10693359 23.30566406 C28.36039551 22.40041992 28.61385742 21.49517578 28.875 20.5625 C30.90649291 13.52647607 33.08373089 6.7298518 36 0 C40.62 0 45.24 0 50 0 C48.95829685 5.12838476 47.77774609 9.91036035 45.84765625 14.76953125 C44.81644571 17.48299309 43.94704281 20.23537013 43.0625 23 C41.65351264 27.27536242 40.04128496 31.21791593 37.9453125 35.1953125 C35.57744793 39.71578122 34.00955447 43.95222766 33 49 C27.72 49 22.44 49 17 49 C16.443125 47.081875 15.88625 45.16375 15.3125 43.1875 C14.01604518 38.95815612 12.62126265 34.9763795 10.6875 31 C6.03246614 21.24038073 2.62115445 10.48461779 0 0 Z " fill="#8092A5" transform="translate(617,377)"/>
<path d="M0 0 C4.29 0 8.58 0 13 0 C13 22.44 13 44.88 13 68 C8.71 68 4.42 68 0 68 C0 45.56 0 23.12 0 0 Z " fill="#08B7D5" transform="translate(453,357)"/>
<path d="M0 0 C2.62539392 1.94651631 4.02626201 3.67941876 5.1875 6.75 C5.41796875 9.2578125 5.41796875 9.2578125 5.375 11.875 C5.36855469 12.74382812 5.36210938 13.61265625 5.35546875 14.5078125 C5.1875 16.75 5.1875 16.75 4.1875 18.75 C3.5275 18.75 2.8675 18.75 2.1875 18.75 C1.94 19.36875 1.6925 19.9875 1.4375 20.625 C-0.07208081 23.19128738 -1.0857756 23.64574927 -3.8125 24.75 C-8.27935163 25.43720794 -11.75570279 25.37029402 -15.6875 23.0625 C-20.09104347 18.27040858 -21.48581982 14.7770241 -21.30078125 8.26171875 C-20.49038865 4.09305922 -18.17405295 1.27116471 -14.8125 -1.25 C-9.50736315 -3.00453645 -4.71208729 -3.20029262 0 0 Z " fill="#161D30" transform="translate(540.8125,390.25)"/>
<path d="M0 0 C3.71343585 1.65041593 6.39003077 3.89596252 9 7 C9.93344811 11.62217756 10.09621823 16.72957173 8.01171875 21.046875 C5.81552266 23.79381995 3.38294183 26.03344519 0 27 C-6.95007133 27.66191155 -6.95007133 27.66191155 -10.875 25.1875 C-14.58715318 21.36616584 -15.35382344 18.98799331 -15.5 13.75 C-15.41674956 9.3671091 -15.20821514 6.25665034 -12.5625 2.6875 C-8.80080501 -0.90482957 -4.9331981 -1.00491072 0 0 Z " fill="#101D2F" transform="translate(369,388)"/>
<path d="M0 0 C4 0 4 0 5.39453125 1.22265625 C5.86246094 1.82980469 6.33039063 2.43695313 6.8125 3.0625 C9.318221 6.14901726 11.94845806 8.95774943 14.82421875 11.6953125 C15.50830811 12.35136475 16.19239746 13.00741699 16.8972168 13.68334961 C18.29006409 15.01086423 19.69382919 16.32702463 21.10864258 17.63110352 C25.89404446 22.23712009 25.89404446 22.23712009 26.3515625 25.53125 C24.3060754 29.26751545 21.45921787 31.91095728 18.375 34.8125 C17.09711581 36.04887971 15.82105683 37.28714882 14.546875 38.52734375 C13.93392578 39.12144043 13.32097656 39.71553711 12.68945312 40.32763672 C9.60123515 43.38461549 6.76589885 46.65180666 4 50 C2.35 49.67 0.7 49.34 -1 49 C-1.73999023 46.77661133 -1.73999023 46.77661133 -2 44 C-0.46118164 41.7800293 -0.46118164 41.7800293 1.83984375 39.57421875 C3.0628418 38.38022461 3.0628418 38.38022461 4.31054688 37.16210938 C5.17744141 36.34548828 6.04433594 35.52886719 6.9375 34.6875 C7.80052734 33.85154297 8.66355469 33.01558594 9.55273438 32.15429688 C11.6890355 30.08881236 13.83804349 28.03856078 16 26 C14.6973487 23.12170531 13.31978198 21.07864767 11.06640625 18.87109375 C10.49986328 18.31099609 9.93332031 17.75089844 9.34960938 17.17382812 C8.75986328 16.60083984 8.17011719 16.02785156 7.5625 15.4375 C6.68368164 14.5722168 6.68368164 14.5722168 5.78710938 13.68945312 C4.69442213 12.61412981 3.59968516 11.54088225 2.50219727 10.47045898 C2.00647217 9.98520752 1.51074707 9.49995605 1 9 C0.15489868 8.24601929 0.15489868 8.24601929 -0.70727539 7.47680664 C-1.13387451 6.98946045 -1.56047363 6.50211426 -2 6 C-1.57894737 1.57894737 -1.57894737 1.57894737 0 0 Z " fill="#EFF9FA" transform="translate(184,367)"/>
<path d="M0 0 C2.0625 0.9375 2.0625 0.9375 2.8125 2.671875 C3.0625 4.9375 3.0625 4.9375 1.4375 7.015625 C0.65375 7.73234375 -0.13 8.4490625 -0.9375 9.1875 C-4.03730702 12.12288668 -7.04631187 15.05053245 -9.875 18.25 C-10.42027344 18.86488281 -10.96554688 19.47976563 -11.52734375 20.11328125 C-12.96562288 21.97388057 -13.9168048 23.82642359 -14.9375 25.9375 C-14.11173462 26.71613403 -14.11173462 26.71613403 -13.26928711 27.51049805 C-10.78898587 29.86624554 -8.33204901 32.24502049 -5.875 34.625 C-4.5746582 35.84993164 -4.5746582 35.84993164 -3.24804688 37.09960938 C-2.43271484 37.89560547 -1.61738281 38.69160156 -0.77734375 39.51171875 C-0.01800537 40.23963623 0.74133301 40.96755371 1.52368164 41.7175293 C3.0625 43.9375 3.0625 43.9375 2.80249023 46.71411133 C2.55829346 47.44782959 2.31409668 48.18154785 2.0625 48.9375 C-0.4125 49.4325 -0.4125 49.4325 -2.9375 49.9375 C-3.783125 48.926875 -4.62875 47.91625 -5.5 46.875 C-8.12087271 43.83456971 -10.87384813 41.00882509 -13.77734375 38.2421875 C-14.45917725 37.58613525 -15.14101074 36.93008301 -15.84350586 36.25415039 C-17.23185811 34.92536601 -18.63239867 33.60919283 -20.04516602 32.30639648 C-24.90395494 27.63208013 -24.90395494 27.63208013 -25.0703125 24.1875 C-23.87583243 21.81501544 -22.77830049 20.40127264 -20.8125 18.625 C-18.19751695 16.16478125 -15.77116544 13.66714939 -13.4375 10.9375 C-12.2724986 9.6027114 -11.10582003 8.26938483 -9.9375 6.9375 C-9.03644531 5.89916016 -9.03644531 5.89916016 -8.1171875 4.83984375 C-3.60146299 -0.07662687 -3.60146299 -0.07662687 0 0 Z " fill="#F3FAFB" transform="translate(158.9375,367.0625)"/>
<path d="M0 0 C4.62 0 9.24 0 14 0 C14 4.62 14 9.24 14 14 C9.38 14 4.76 14 0 14 C0 9.38 0 4.76 0 0 Z " fill="#79899C" transform="translate(480,412)"/>
<path d="M0 0 C3.1875 2.3125 3.1875 2.3125 5 5 C5 5.99 5 6.98 5 8 C-1.93 8 -8.86 8 -16 8 C-13.81942938 -0.72228248 -8.19017472 -1.42964588 0 0 Z " fill="#162233" transform="translate(596,387)"/>
<path d="M0 0 C2.70643937 1.38778129 3.93292426 2.66094061 6 5 C6 5.99 6 6.98 6 8 C-0.6 8 -7.2 8 -14 8 C-12.27572205 -0.62138977 -8.20255118 -1.38616756 0 0 Z " fill="#102334" transform="translate(426,387)"/>
<path d="M0 0 C2.10473633 0.42797852 2.10473633 0.42797852 4 1 C3.52691406 1.40162354 3.05382812 1.80324707 2.56640625 2.21704102 C-2.86809411 6.89343917 -7.96039449 11.8411225 -13 16.9375 C-13.77472656 17.71673828 -14.54945313 18.49597656 -15.34765625 19.29882812 C-17.23410757 21.1969242 -19.11816245 23.09733149 -21 25 C-21 22 -21 22 -19.71484375 20.45703125 C-19.12832031 19.91433594 -18.54179687 19.37164062 -17.9375 18.8125 C-15.3145594 16.30566542 -12.86015261 13.75618729 -10.5 11 C-8.1345024 8.28366455 -5.76901925 5.5721038 -3.3125 2.9375 C-2.77238281 2.34839844 -2.23226562 1.75929688 -1.67578125 1.15234375 C-1.12277344 0.77207031 -0.56976563 0.39179688 0 0 Z " fill="#CDEBF0" transform="translate(156,367)"/>
<path d="M0 0 C1.03930664 0.01353516 1.03930664 0.01353516 2.09960938 0.02734375 C3.79572395 0.05073843 5.49165871 0.08660359 7.1875 0.125 C7.1875 0.455 7.1875 0.785 7.1875 1.125 C6.24648438 1.16238281 5.30546875 1.19976562 4.3359375 1.23828125 C2.46808594 1.33689453 2.46808594 1.33689453 0.5625 1.4375 C-1.28214844 1.52451172 -1.28214844 1.52451172 -3.1640625 1.61328125 C-8.54388962 2.36783944 -12.43228613 4.27338842 -16.0625 8.3125 C-17.42375 9.7046875 -17.42375 9.7046875 -18.8125 11.125 C-19.4725 11.125 -20.1325 11.125 -20.8125 11.125 C-19.01598708 6.27441512 -15.10400188 3.30718825 -10.6015625 0.984375 C-7.03892383 -0.1133568 -3.68475069 -0.09167801 0 0 Z " fill="#6B7C91" transform="translate(590.8125,375.875)"/>
<path d="M0 0 C0.33 0.99 0.66 1.98 1 3 C0.15695313 3.83144531 -0.68609375 4.66289062 -1.5546875 5.51953125 C-2.66159075 6.61705397 -3.7683543 7.71471759 -4.875 8.8125 C-5.43058594 9.35970703 -5.98617187 9.90691406 -6.55859375 10.47070312 C-7.36103516 11.26831055 -7.36103516 11.26831055 -8.1796875 12.08203125 C-8.67194824 12.56905518 -9.16420898 13.0560791 -9.67138672 13.55786133 C-11.22588489 15.17003501 -11.22588489 15.17003501 -13 18 C-13 14 -13 14 -11.6796875 12.32421875 C-11.08414063 11.78410156 -10.48859375 11.24398438 -9.875 10.6875 C-6.29611349 7.31999375 -3.15302809 3.76825308 0 0 Z " fill="#2CC1DA" transform="translate(157,376)"/>
<path d="M0 0 C0.33 0.99 0.66 1.98 1 3 C-0.45217676 4.50596108 -1.91192861 6.00462104 -3.375 7.5 C-4.18710938 8.3353125 -4.99921875 9.170625 -5.8359375 10.03125 C-8 12 -8 12 -10 12 C-8.52278578 8.54798361 -6.56205999 6.35038064 -3.875 3.75 C-3.15054688 3.04359375 -2.42609375 2.3371875 -1.6796875 1.609375 C-1.12539062 1.07828125 -0.57109375 0.5471875 0 0 Z " fill="#C3E9EF" transform="translate(192,401)"/>
<path d="M0 0 C0.66 0.33 1.32 0.66 2 1 C1.21625 1.78375 0.4325 2.5675 -0.375 3.375 C-3.78759075 7.3966367 -4.32434339 11.89727996 -5 17 C-5.33 17 -5.66 17 -6 17 C-6.92017937 8.5309417 -6.92017937 8.5309417 -4.6640625 4.77734375 C-3.18027954 3.08109421 -1.67546697 1.50592567 0 0 Z " fill="#323E55" transform="translate(526,389)"/>
<path d="M0 0 C2.5 1.8125 2.5 1.8125 5 4 C5 4.99 5 5.98 5 7 C1.37 7 -2.26 7 -6 7 C-6 6.67 -6 6.34 -6 6 C-4.02 6 -2.04 6 0 6 C0 4.02 0 2.04 0 0 Z " fill="#0E344D" transform="translate(427,388)"/>
<path d="M0 0 C1.21236328 0.04060547 1.21236328 0.04060547 2.44921875 0.08203125 C3.06410156 0.11683594 3.67898438 0.15164063 4.3125 0.1875 C4.3125 0.5175 4.3125 0.8475 4.3125 1.1875 C1.6725 1.1875 -0.9675 1.1875 -3.6875 1.1875 C-3.935 1.80625 -4.1825 2.425 -4.4375 3.0625 C-5.89378639 5.53818687 -7.06562506 6.13875002 -9.6875 7.1875 C-7.45089065 2.19814067 -5.70862614 -0.24820114 0 0 Z " fill="#0C3C54" transform="translate(364.6875,387.8125)"/>
<path d="M0 0 C0.66 0.33 1.32 0.66 2 1 C0.90220176 2.15193623 -0.20349446 3.29634937 -1.3125 4.4375 C-1.92738281 5.07558594 -2.54226563 5.71367187 -3.17578125 6.37109375 C-5 8 -5 8 -8 9 C-6.4169423 4.7257442 -3.49431596 2.73468206 0 0 Z " fill="#079BB9" transform="translate(409,378)"/>
</svg>
